<?xml version="1.0" encoding="UTF-8"?>
<svg xmlns="http://www.w3.org/2000/svg" xmlns:xlink="http://www.w3.org/1999/xlink" width="225px" height="200px" viewBox="0 0 225 200" version="1.1">
<g id="surface1">
<path style=" stroke:none;fill-rule:nonzero;fill:rgb(0%,40%,60%);fill-opacity:1;" d="M 143.164062 194.738281 C 143.164062 196.402344 141.816406 197.75 140.15625 197.75 C 138.496094 197.75 137.148438 196.402344 137.148438 194.738281 C 137.148438 193.078125 138.496094 191.730469 140.15625 191.730469 C 141.816406 191.730469 143.164062 193.078125 143.164062 194.738281 Z M 143.164062 194.738281 "/>
<path style=" stroke:none;fill-rule:nonzero;fill:rgb(0%,40%,60%);fill-opacity:1;" d="M 17.523438 69.292969 C 17.523438 70.953125 16.175781 72.300781 14.515625 72.300781 C 12.851562 72.300781 11.503906 70.953125 11.503906 69.292969 C 11.503906 67.632812 12.851562 66.285156 14.515625 66.285156 C 16.175781 66.285156 17.523438 67.632812 17.523438 69.292969 Z M 17.523438 69.292969 "/>
<path style=" stroke:none;fill-rule:nonzero;fill:rgb(0%,40%,60%);fill-opacity:1;" d="M 17.523438 132.558594 C 17.523438 134.222656 16.175781 135.570312 14.515625 135.570312 C 12.851562 135.570312 11.503906 134.222656 11.503906 132.558594 C 11.503906 130.898438 12.851562 129.550781 14.515625 129.550781 C 16.175781 129.550781 17.523438 130.898438 17.523438 132.558594 Z M 17.523438 132.558594 "/>
<path style=" stroke:none;fill-rule:nonzero;fill:rgb(0%,40%,60%);fill-opacity:1;" d="M 80.289062 194.738281 C 80.289062 196.402344 78.941406 197.75 77.28125 197.75 C 75.617188 197.75 74.269531 196.402344 74.269531 194.738281 C 74.269531 193.078125 75.617188 191.730469 77.28125 191.730469 C 78.941406 191.730469 80.289062 193.078125 80.289062 194.738281 Z M 80.289062 194.738281 "/>
<path style="fill:none;stroke-width:0.3;stroke-linecap:butt;stroke-linejoin:miter;stroke:rgb(0%,40%,60%);stroke-opacity:1;stroke-miterlimit:10;" d="M 55.57922 4.970006 L 10.308755 49.878711 " transform="matrix(1.39293,0,0,1.39293,0,0.0224417)"/>
<path style="fill:none;stroke-width:0.3;stroke-linecap:butt;stroke-linejoin:miter;stroke:rgb(0%,40%,60%);stroke-opacity:1;stroke-miterlimit:10;" d="M 10.308755 139.530665 L 146.010781 5.149484 " transform="matrix(1.39293,0,0,1.39293,0,0.0224417)"/>
<path style=" stroke:none;fill-rule:nonzero;fill:rgb(0%,40%,60%);fill-opacity:1;" d="M 17.523438 194.738281 C 17.523438 196.402344 16.175781 197.75 14.515625 197.75 C 12.851562 197.75 11.503906 196.402344 11.503906 194.738281 C 11.503906 193.078125 12.851562 191.730469 14.515625 191.730469 C 16.175781 191.730469 17.523438 193.078125 17.523438 194.738281 Z M 17.523438 194.738281 "/>
<path style=" stroke:none;fill-rule:nonzero;fill:rgb(0%,40%,60%);fill-opacity:1;" d="M 80.289062 69.292969 C 80.289062 70.953125 78.941406 72.300781 77.28125 72.300781 C 75.617188 72.300781 74.269531 70.953125 74.269531 69.292969 C 74.269531 67.632812 75.617188 66.285156 77.28125 66.285156 C 78.941406 66.285156 80.289062 67.632812 80.289062 69.292969 Z M 80.289062 69.292969 "/>
<path style=" stroke:none;fill-rule:nonzero;fill:rgb(0%,0%,0%);fill-opacity:1;" d="M 85.902344 198.847656 C 86.273438 199.109375 86.703125 199.269531 87.15625 199.308594 C 87.816406 199.359375 88.457031 199.070312 88.855469 198.542969 C 89.21875 198.058594 89.414062 197.464844 89.414062 196.855469 C 89.417969 196.3125 89.261719 195.78125 88.964844 195.324219 C 88.367188 194.53125 87.394531 194.101562 86.402344 194.195312 L 85.972656 194.195312 L 85.972656 193.988281 C 86.707031 193.738281 87.398438 193.371094 88.019531 192.902344 C 88.511719 192.511719 88.792969 191.914062 88.769531 191.285156 C 88.820312 190.753906 88.601562 190.230469 88.1875 189.894531 C 87.792969 189.574219 87.300781 189.402344 86.792969 189.417969 C 86.195312 189.417969 85.621094 189.660156 85.207031 190.085938 C 84.890625 190.417969 84.617188 190.789062 84.398438 191.1875 L 84.148438 191.1875 C 84.332031 190.417969 84.757812 189.726562 85.359375 189.210938 C 85.933594 188.722656 86.667969 188.457031 87.421875 188.472656 C 88.128906 188.421875 88.824219 188.667969 89.34375 189.15625 C 89.78125 189.566406 90.027344 190.140625 90.023438 190.742188 C 90.007812 191.257812 89.8125 191.75 89.46875 192.136719 C 89.175781 192.457031 88.84375 192.738281 88.480469 192.972656 C 88.9375 193.15625 89.363281 193.421875 89.734375 193.75 C 90.324219 194.316406 90.652344 195.105469 90.625 195.925781 C 90.636719 196.984375 90.1875 198 89.398438 198.710938 C 88.445312 199.546875 87.195312 199.972656 85.929688 199.894531 C 85.445312 199.929688 84.960938 199.824219 84.535156 199.585938 C 84.304688 199.453125 84.15625 199.214844 84.132812 198.945312 C 84.132812 198.800781 84.179688 198.65625 84.273438 198.542969 C 84.375 198.410156 84.535156 198.335938 84.703125 198.347656 C 85.144531 198.398438 85.558594 198.570312 85.902344 198.847656 Z M 85.902344 198.847656 "/>
<path style=" stroke:none;fill-rule:nonzero;fill:rgb(0%,40%,60%);fill-opacity:1;" d="M 139.558594 11.582031 C 139.917969 11.503906 140.242188 11.3125 140.492188 11.039062 C 141 10.355469 141.464844 9.640625 141.882812 8.894531 L 147.039062 -0.00390625 L 147.46875 -0.00390625 L 149.167969 10.039062 C 149.199219 10.46875 149.332031 10.882812 149.558594 11.25 C 149.839844 11.453125 150.175781 11.558594 150.519531 11.554688 L 150.519531 11.847656 L 146.078125 11.847656 L 146.078125 11.554688 C 146.421875 11.542969 146.765625 11.476562 147.09375 11.359375 C 147.339844 11.246094 147.488281 10.992188 147.46875 10.71875 L 147.46875 10.441406 C 147.46875 10.34375 147.46875 10.261719 147.46875 10.191406 L 147.078125 7.863281 L 143.289062 7.863281 L 142.175781 9.855469 C 142.101562 9.996094 142.039062 10.140625 141.980469 10.289062 C 141.894531 10.5 141.839844 10.726562 141.828125 10.957031 C 141.8125 11.144531 141.90625 11.328125 142.066406 11.429688 C 142.324219 11.539062 142.605469 11.59375 142.886719 11.582031 L 142.886719 11.875 L 139.558594 11.875 Z M 146.980469 7.238281 L 146.230469 2.628906 L 143.652344 7.238281 Z M 146.980469 7.238281 "/>
<path style="fill:none;stroke-width:0.3;stroke-linecap:butt;stroke-linejoin:miter;stroke:rgb(0%,40%,60%);stroke-opacity:1;stroke-miterlimit:10;" d="M 145.399435 49.878711 L 55.57922 140.060686 " transform="matrix(1.39293,0,0,1.39293,0,0.0224417)"/>
<path style="fill:none;stroke-width:0.3;stroke-linecap:butt;stroke-linejoin:miter;stroke:rgb(0%,40%,60%);stroke-opacity:1;stroke-miterlimit:10;" d="M 10.491037 95.149176 L 55.57922 49.710451 " transform="matrix(1.39293,0,0,1.39293,0,0.0224417)"/>
<path style=" stroke:none;fill-rule:nonzero;fill:rgb(0%,40%,60%);fill-opacity:1;" d="M 143.164062 69.292969 C 143.164062 70.953125 141.816406 72.300781 140.15625 72.300781 C 138.496094 72.300781 137.148438 70.953125 137.148438 69.292969 C 137.148438 67.632812 138.496094 66.285156 140.15625 66.285156 C 141.816406 66.285156 143.164062 67.632812 143.164062 69.292969 Z M 143.164062 69.292969 "/>
<path style=" stroke:none;fill-rule:nonzero;fill:rgb(0%,40%,60%);fill-opacity:1;" d="M 80.289062 6.988281 C 80.289062 8.648438 78.941406 9.996094 77.28125 9.996094 C 75.617188 9.996094 74.269531 8.648438 74.269531 6.988281 C 74.269531 5.324219 75.617188 3.976562 77.28125 3.976562 C 78.941406 3.976562 80.289062 5.324219 80.289062 6.988281 Z M 80.289062 6.988281 "/>
<path style=" stroke:none;fill-rule:nonzero;fill:rgb(0%,40%,60%);fill-opacity:1;" d="M 205.722656 6.988281 C 205.722656 8.648438 204.375 9.996094 202.714844 9.996094 C 201.050781 9.996094 199.703125 8.648438 199.703125 6.988281 C 199.703125 5.324219 201.050781 3.976562 202.714844 3.976562 C 204.375 3.976562 205.722656 5.324219 205.722656 6.988281 Z M 205.722656 6.988281 "/>
<path style="fill:none;stroke-width:0.3;stroke-linecap:butt;stroke-linejoin:miter;stroke:rgb(0%,40%,60%);stroke-opacity:1;stroke-miterlimit:10;" d="M 10.420928 49.710451 L 10.420928 139.710143 " transform="matrix(1.39293,0,0,1.39293,0,0.0224417)"/>
<path style="fill:none;stroke-width:0.3;stroke-linecap:butt;stroke-linejoin:miter;stroke:rgb(0%,40%,60%);stroke-opacity:1;stroke-miterlimit:10;" d="M 100.619729 49.710451 L 100.619729 139.881208 " transform="matrix(1.39293,0,0,1.39293,0,0.0224417)"/>
<path style="fill:none;stroke-width:0.3;stroke-linecap:butt;stroke-linejoin:miter;stroke:rgb(0%,40%,60%);stroke-opacity:1;stroke-miterlimit:10;" d="M 55.481068 4.798941 L 55.481068 139.530665 " transform="matrix(1.39293,0,0,1.39293,0,0.0224417)"/>
<path style="fill:none;stroke-width:0.3;stroke-linecap:butt;stroke-linejoin:miter;stroke:rgb(0%,40%,60%);stroke-opacity:1;stroke-miterlimit:10;" d="M 145.410652 5.149484 L 145.410652 49.940407 " transform="matrix(1.39293,0,0,1.39293,0,0.0224417)"/>
<path style=" stroke:none;fill-rule:nonzero;fill:rgb(0%,0%,0%);fill-opacity:1;" d="M 149.503906 198.820312 C 149.835938 199.105469 150.242188 199.289062 150.671875 199.351562 C 151.316406 199.339844 151.921875 199.039062 152.316406 198.527344 C 152.789062 197.957031 153.035156 197.234375 153.011719 196.496094 C 153.023438 195.089844 152.101562 193.847656 150.757812 193.445312 C 150.023438 193.117188 149.234375 192.941406 148.429688 192.929688 L 148.207031 192.929688 C 148.207031 192.929688 148.207031 192.929688 148.097656 192.847656 C 148.101562 192.808594 148.101562 192.769531 148.097656 192.734375 C 148.097656 192.734375 148.097656 192.734375 148.097656 192.652344 L 149.878906 188.75 L 153.375 188.75 C 153.515625 188.761719 153.660156 188.726562 153.78125 188.652344 C 153.921875 188.558594 154.046875 188.449219 154.15625 188.320312 L 154.28125 188.445312 L 153.652344 189.949219 C 153.652344 189.949219 153.570312 190.03125 153.472656 190.046875 L 149.992188 190.046875 L 149.292969 191.4375 C 149.957031 191.535156 150.613281 191.679688 151.257812 191.871094 C 151.898438 192.070312 152.484375 192.410156 152.972656 192.875 C 153.347656 193.25 153.652344 193.695312 153.863281 194.183594 C 154.0625 194.667969 154.167969 195.1875 154.167969 195.714844 C 154.191406 196.859375 153.71875 197.957031 152.875 198.722656 C 151.621094 199.789062 149.929688 200.183594 148.332031 199.78125 C 147.789062 199.601562 147.511719 199.308594 147.511719 198.878906 C 147.507812 198.714844 147.574219 198.558594 147.691406 198.445312 C 147.839844 198.308594 148.035156 198.242188 148.234375 198.265625 C 148.703125 198.316406 149.148438 198.511719 149.503906 198.820312 Z M 149.503906 198.820312 "/>
<path style=" stroke:none;fill-rule:nonzero;fill:rgb(0%,0%,0%);fill-opacity:1;" d="M 1.40625 67.246094 C 1 66.738281 0.785156 66.109375 0.792969 65.460938 C 0.796875 64.75 1.125 64.078125 1.683594 63.636719 C 2.347656 63.132812 3.167969 62.882812 3.996094 62.925781 C 4.757812 62.886719 5.507812 63.140625 6.085938 63.636719 C 6.574219 64.050781 6.859375 64.65625 6.867188 65.296875 C 6.851562 65.953125 6.566406 66.574219 6.074219 67.007812 C 5.617188 67.390625 5.125 67.722656 4.597656 67.996094 C 5.332031 68.511719 6.003906 69.113281 6.589844 69.792969 C 6.996094 70.304688 7.214844 70.9375 7.203125 71.589844 C 7.207031 72.347656 6.882812 73.070312 6.308594 73.570312 C 5.648438 74.125 4.804688 74.410156 3.941406 74.363281 C 3.117188 74.386719 2.3125 74.128906 1.65625 73.625 C 1.042969 73.167969 0.691406 72.441406 0.710938 71.675781 C 0.703125 71.007812 0.933594 70.359375 1.363281 69.851562 C 1.8125 69.382812 2.320312 68.96875 2.871094 68.625 C 2.335938 68.214844 1.84375 67.753906 1.40625 67.246094 Z M 5.390625 73.375 C 5.710938 73.019531 5.878906 72.554688 5.863281 72.078125 C 5.878906 71.566406 5.699219 71.070312 5.363281 70.6875 C 4.714844 70.066406 4.011719 69.503906 3.257812 69.015625 C 2.8125 69.285156 2.457031 69.683594 2.242188 70.15625 C 2.035156 70.59375 1.925781 71.066406 1.921875 71.550781 C 1.9375 72.175781 2.179688 72.773438 2.605469 73.234375 C 2.945312 73.652344 3.457031 73.898438 3.996094 73.902344 C 4.515625 73.929688 5.023438 73.738281 5.390625 73.375 Z M 5.140625 66.773438 C 5.480469 66.339844 5.65625 65.800781 5.640625 65.253906 C 5.648438 64.773438 5.480469 64.308594 5.167969 63.945312 C 4.800781 63.574219 4.296875 63.375 3.773438 63.402344 C 3.3125 63.382812 2.867188 63.554688 2.535156 63.875 C 2.210938 64.164062 2.027344 64.582031 2.035156 65.015625 C 2.046875 65.539062 2.253906 66.035156 2.617188 66.410156 C 3.050781 66.898438 3.558594 67.316406 4.125 67.648438 C 4.511719 67.398438 4.871094 67.101562 5.195312 66.773438 Z M 5.140625 66.773438 "/>
<path style=" stroke:none;fill-rule:nonzero;fill:rgb(0%,0%,0%);fill-opacity:1;" d="M 211.417969 11.136719 C 211.785156 11.410156 212.21875 11.578125 212.671875 11.613281 C 213.332031 11.628906 213.953125 11.316406 214.332031 10.777344 C 214.6875 10.289062 214.882812 9.707031 214.886719 9.105469 C 214.898438 8.554688 214.738281 8.011719 214.425781 7.558594 C 213.824219 6.769531 212.855469 6.347656 211.863281 6.445312 L 211.433594 6.445312 L 211.433594 6.25 C 212.175781 6.007812 212.871094 5.648438 213.496094 5.175781 C 214.015625 4.804688 214.328125 4.203125 214.332031 3.558594 C 214.371094 3.027344 214.148438 2.503906 213.730469 2.167969 C 213.335938 1.851562 212.84375 1.691406 212.339844 1.707031 C 211.746094 1.707031 211.179688 1.941406 210.765625 2.363281 C 210.445312 2.695312 210.171875 3.070312 209.957031 3.476562 L 209.707031 3.476562 C 209.882812 2.703125 210.308594 2.007812 210.917969 1.5 C 211.472656 1.003906 212.191406 0.726562 212.9375 0.71875 C 213.652344 0.671875 214.355469 0.910156 214.886719 1.386719 C 215.324219 1.800781 215.570312 2.375 215.570312 2.976562 C 215.550781 3.488281 215.355469 3.980469 215.011719 4.367188 C 214.714844 4.6875 214.382812 4.972656 214.023438 5.21875 C 214.480469 5.40625 214.90625 5.671875 215.277344 6 C 215.863281 6.566406 216.1875 7.355469 216.167969 8.171875 C 216.183594 9.234375 215.734375 10.25 214.941406 10.957031 C 213.992188 11.800781 212.742188 12.226562 211.476562 12.140625 C 210.992188 12.179688 210.507812 12.078125 210.082031 11.847656 C 209.851562 11.714844 209.699219 11.472656 209.679688 11.207031 C 209.679688 11.058594 209.722656 10.914062 209.804688 10.789062 C 209.910156 10.65625 210.078125 10.582031 210.25 10.59375 C 210.679688 10.671875 211.082031 10.859375 211.417969 11.136719 Z M 211.417969 11.136719 "/>
<path style=" stroke:none;fill-rule:nonzero;fill:rgb(0%,0%,0%);fill-opacity:1;" d="M 224.179688 2.78125 C 224.746094 3.914062 225.03125 5.175781 225 6.445312 C 225.007812 7.480469 224.839844 8.511719 224.5 9.496094 C 224.167969 11.058594 222.792969 12.179688 221.199219 12.195312 C 220.136719 12.210938 219.140625 11.6875 218.550781 10.804688 C 217.746094 9.539062 217.355469 8.054688 217.4375 6.554688 C 217.410156 5.308594 217.660156 4.070312 218.175781 2.933594 C 218.660156 1.632812 219.910156 0.78125 221.292969 0.800781 C 222.566406 0.824219 223.699219 1.605469 224.179688 2.78125 Z M 222.9375 10.425781 C 223.285156 9.191406 223.4375 7.90625 223.382812 6.625 C 223.410156 5.566406 223.320312 4.503906 223.121094 3.464844 C 222.785156 1.988281 222.144531 1.261719 221.226562 1.261719 C 220.304688 1.261719 219.664062 2.015625 219.316406 3.519531 C 219.125 4.570312 219.035156 5.640625 219.050781 6.707031 C 219.03125 7.699219 219.125 8.691406 219.332031 9.660156 C 219.679688 11.054688 220.332031 11.738281 221.292969 11.738281 C 222.089844 11.746094 222.777344 11.191406 222.9375 10.414062 Z M 222.9375 10.425781 "/>
<path style=" stroke:none;fill-rule:nonzero;fill:rgb(0%,0%,0%);fill-opacity:1;" d="M 83.925781 11.847656 C 85.363281 10.410156 86.714844 8.890625 87.976562 7.292969 C 88.621094 6.503906 89 5.527344 89.050781 4.507812 C 89.09375 3.832031 88.859375 3.164062 88.394531 2.667969 C 87.980469 2.257812 87.417969 2.035156 86.835938 2.042969 C 86.140625 2.015625 85.46875 2.3125 85.023438 2.851562 C 84.703125 3.269531 84.453125 3.742188 84.285156 4.242188 L 83.9375 4.242188 C 84.078125 3.238281 84.570312 2.3125 85.332031 1.636719 C 85.925781 1.167969 86.660156 0.910156 87.421875 0.898438 C 88.257812 0.867188 89.070312 1.183594 89.664062 1.777344 C 90.226562 2.335938 90.53125 3.101562 90.511719 3.894531 C 90.496094 4.832031 90.175781 5.738281 89.59375 6.472656 C 88.335938 8.015625 86.996094 9.488281 85.582031 10.886719 L 89.328125 10.886719 C 89.691406 10.863281 90.046875 10.753906 90.359375 10.566406 C 90.671875 10.328125 90.921875 10.019531 91.082031 9.660156 L 91.292969 9.757812 L 90.386719 12.03125 L 83.925781 12.03125 Z M 83.925781 11.847656 "/>
<path style=" stroke:none;fill-rule:nonzero;fill:rgb(0%,0%,0%);fill-opacity:1;" d="M 97.183594 0.816406 L 97.964844 0.816406 L 97.964844 8.171875 L 99.679688 8.171875 L 99.679688 9.257812 L 97.964844 9.257812 L 97.964844 12.042969 L 96.667969 12.042969 L 96.667969 9.257812 L 91.960938 9.257812 L 91.960938 8.171875 Z M 96.65625 2.5 L 92.644531 8.171875 L 96.65625 8.171875 Z M 96.65625 2.5 "/>
<path style=" stroke:none;fill-rule:nonzero;fill:rgb(0%,0%,0%);fill-opacity:1;" d="M 88.410156 63.039062 L 88.410156 72.957031 C 88.410156 73.375 88.519531 73.640625 88.742188 73.75 C 89.144531 73.894531 89.570312 73.964844 89.996094 73.960938 L 89.996094 74.183594 L 85.386719 74.183594 L 85.386719 73.945312 C 85.835938 73.957031 86.277344 73.863281 86.683594 73.667969 C 86.878906 73.527344 86.972656 73.207031 86.972656 72.71875 L 86.972656 65.15625 C 86.988281 64.953125 86.953125 64.746094 86.878906 64.558594 C 86.878906 64.429688 86.683594 64.363281 86.460938 64.363281 C 86.269531 64.375 86.082031 64.410156 85.902344 64.472656 L 85.273438 64.722656 L 85.273438 64.5 L 88.269531 62.96875 L 88.367188 62.96875 C 88.367188 62.96875 88.394531 63.023438 88.410156 63.039062 Z M 88.410156 63.039062 "/>
<path style=" stroke:none;fill-rule:nonzero;fill:rgb(0%,0%,0%);fill-opacity:1;" d="M 92.28125 74 C 93.722656 72.566406 95.078125 71.042969 96.335938 69.445312 C 96.980469 68.65625 97.355469 67.679688 97.40625 66.660156 C 97.453125 65.984375 97.214844 65.316406 96.753906 64.820312 C 96.339844 64.410156 95.777344 64.1875 95.191406 64.195312 C 94.496094 64.167969 93.828125 64.464844 93.382812 65.003906 C 93.058594 65.421875 92.8125 65.894531 92.644531 66.394531 L 92.296875 66.324219 C 92.433594 65.320312 92.929688 64.394531 93.6875 63.722656 C 94.285156 63.25 95.019531 62.992188 95.777344 62.984375 C 96.617188 62.949219 97.429688 63.265625 98.019531 63.859375 C 98.582031 64.417969 98.890625 65.183594 98.871094 65.976562 C 98.855469 66.914062 98.53125 67.820312 97.949219 68.554688 C 96.695312 70.097656 95.355469 71.570312 93.9375 72.96875 L 97.6875 72.96875 C 98.0625 72.996094 98.441406 72.929688 98.785156 72.773438 C 99.097656 72.539062 99.347656 72.226562 99.511719 71.871094 L 99.71875 71.96875 L 98.816406 74.238281 L 92.28125 74.238281 Z M 92.28125 74 "/>
<path style=" stroke:none;fill-rule:nonzero;fill:rgb(0%,0%,0%);fill-opacity:1;" d="M 152.023438 63.039062 L 152.023438 72.957031 C 152.023438 73.375 152.136719 73.640625 152.359375 73.75 C 152.761719 73.894531 153.183594 73.964844 153.613281 73.960938 L 153.613281 74.183594 L 149 74.183594 L 149 73.945312 C 149.449219 73.957031 149.894531 73.863281 150.296875 73.667969 C 150.492188 73.527344 150.589844 73.207031 150.589844 72.71875 L 150.589844 65.15625 C 150.601562 64.953125 150.566406 64.746094 150.492188 64.558594 C 150.40625 64.414062 150.238281 64.335938 150.074219 64.363281 C 149.882812 64.375 149.695312 64.410156 149.515625 64.472656 L 148.890625 64.722656 L 148.890625 64.5 L 151.886719 62.96875 L 151.984375 62.96875 C 151.984375 62.96875 152.011719 63.023438 152.023438 63.039062 Z M 152.023438 63.039062 "/>
<path style=" stroke:none;fill-rule:nonzero;fill:rgb(0%,0%,0%);fill-opacity:1;" d="M 162.277344 64.917969 C 162.851562 66.054688 163.136719 67.3125 163.113281 68.582031 C 163.113281 69.625 162.941406 70.660156 162.597656 71.648438 C 162.257812 73.203125 160.886719 74.320312 159.296875 74.335938 C 158.234375 74.347656 157.238281 73.824219 156.648438 72.941406 C 155.859375 71.695312 155.46875 70.238281 155.535156 68.761719 C 155.503906 67.515625 155.761719 66.273438 156.285156 65.140625 C 156.785156 63.882812 158.011719 63.0625 159.363281 63.082031 C 160.613281 63.070312 161.75 63.789062 162.277344 64.917969 Z M 161.035156 72.566406 C 161.390625 71.332031 161.546875 70.046875 161.496094 68.761719 C 161.519531 67.703125 161.425781 66.640625 161.21875 65.601562 C 160.882812 64.125 160.257812 63.402344 159.324219 63.402344 C 158.390625 63.402344 157.761719 64.152344 157.429688 65.671875 C 157.222656 66.714844 157.128906 67.78125 157.148438 68.847656 C 157.128906 69.839844 157.222656 70.828125 157.429688 71.800781 C 157.777344 73.191406 158.433594 73.875 159.394531 73.875 C 160.183594 73.886719 160.871094 73.339844 161.035156 72.566406 Z M 161.035156 72.566406 "/>
<path style=" stroke:none;fill-rule:nonzero;fill:rgb(0%,0%,0%);fill-opacity:1;" d="M 5.222656 126.585938 L 6.003906 126.585938 L 6.003906 133.9375 L 7.71875 133.9375 L 7.71875 135.023438 L 6.003906 135.023438 L 6.003906 137.8125 L 4.707031 137.8125 L 4.707031 135.023438 L 0 135.023438 L 0 133.9375 Z M 4.695312 128.269531 L 0.683594 133.9375 L 4.695312 133.9375 Z M 4.695312 128.269531 "/>
<path style=" stroke:none;fill-rule:nonzero;fill:rgb(0%,0%,0%);fill-opacity:1;" d="M 0.320312 199.601562 C 1.757812 198.148438 3.113281 196.613281 4.375 195.003906 C 4.996094 194.203125 5.351562 193.230469 5.390625 192.21875 C 5.433594 191.546875 5.195312 190.886719 4.734375 190.394531 C 4.324219 189.976562 3.761719 189.742188 3.175781 189.753906 C 2.476562 189.730469 1.808594 190.035156 1.363281 190.574219 C 1.039062 190.992188 0.789062 191.464844 0.625 191.96875 L 0.277344 191.882812 C 0.417969 190.878906 0.910156 189.953125 1.671875 189.28125 C 2.273438 188.8125 3.011719 188.558594 3.773438 188.554688 C 4.605469 188.523438 5.410156 188.835938 6.003906 189.417969 C 6.566406 189.984375 6.871094 190.753906 6.851562 191.550781 C 6.835938 192.488281 6.511719 193.390625 5.933594 194.128906 C 4.679688 195.667969 3.339844 197.136719 1.921875 198.527344 L 5.710938 198.527344 C 6.085938 198.558594 6.464844 198.496094 6.8125 198.347656 C 7.125 198.105469 7.371094 197.789062 7.535156 197.429688 L 7.746094 197.527344 L 6.785156 199.796875 L 0.320312 199.796875 Z M 0.320312 199.601562 "/>
</g>
</svg>
