<svg id="_Layer_" data-name="&lt;Layer&gt;" xmlns="http://www.w3.org/2000/svg" viewBox="0 0 161.53 143.55"><defs><style>.cls-1{fill:#069;}.cls-2{fill:none;stroke:#069;stroke-miterlimit:10;stroke-width:0.3px;}</style></defs><circle class="cls-1" cx="100.62" cy="139.79" r="2.16"/><circle class="cls-1" cx="10.42" cy="49.73" r="2.16"/><circle class="cls-1" cx="10.42" cy="95.15" r="2.16"/><circle class="cls-1" cx="55.48" cy="139.79" r="2.16"/><line class="cls-2" x1="55.58" y1="4.97" x2="10.31" y2="49.88"/><line class="cls-2" x1="10.31" y1="139.53" x2="146.01" y2="5.15"/><circle class="cls-1" cx="10.42" cy="139.79" r="2.16"/><circle class="cls-1" cx="55.48" cy="49.73" r="2.16"/><path d="M61.8,144.76a1.85,1.85,0,0,0,.9.33,1.39,1.39,0,0,0,1.22-.55,2,2,0,0,0,.4-1.21,2,2,0,0,0-.32-1.1,2.06,2.06,0,0,0-1.84-.81h-.31v-.15a5.27,5.27,0,0,0,1.47-.78,1.42,1.42,0,0,0,.54-1.16,1.15,1.15,0,0,0-.42-1,1.51,1.51,0,0,0-1-.34,1.59,1.59,0,0,0-1.14.48,3.84,3.84,0,0,0-.58.79l-.18,0a2.7,2.7,0,0,1,.87-1.42,2.22,2.22,0,0,1,1.48-.53,1.83,1.83,0,0,1,1.38.49,1.56,1.56,0,0,1,.49,1.14,1.58,1.58,0,0,1-.4,1,3.6,3.6,0,0,1-.71.6,3.08,3.08,0,0,1,.9.56,2.06,2.06,0,0,1,.64,1.56,2.65,2.65,0,0,1-.88,2,3.45,3.45,0,0,1-2.49.85,1.77,1.77,0,0,1-1-.22.59.59,0,0,1-.29-.46.46.46,0,0,1,.1-.29.36.36,0,0,1,.31-.14A1.67,1.67,0,0,1,61.8,144.76Z" transform="translate(-0.13 -2.02)"/><path class="cls-1" d="M100.32,10.32a1.29,1.29,0,0,0,.67-.39,14.36,14.36,0,0,0,1-1.54L105.69,2H106l1.22,7.21a1.89,1.89,0,0,0,.28.87,1.15,1.15,0,0,0,.69.22v.21H105v-.21a2.45,2.45,0,0,0,.73-.14A.47.47,0,0,0,106,9.7V9.5c0-.07,0-.13,0-.18l-.28-1.67H103l-.8,1.43a2.92,2.92,0,0,0-.14.31,1.47,1.47,0,0,0-.11.48.37.37,0,0,0,.17.34,1.41,1.41,0,0,0,.59.11v.21h-2.39Zm5.33-3.12-.54-3.31L103.26,7.2Z" transform="translate(-0.13 -2.02)"/><line class="cls-2" x1="145.4" y1="49.88" x2="55.58" y2="140.06"/><line class="cls-2" x1="10.49" y1="95.15" x2="55.58" y2="49.71"/><circle class="cls-1" cx="100.62" cy="49.73" r="2.16"/><circle class="cls-1" cx="55.48" cy="5" r="2.16"/><circle class="cls-1" cx="145.53" cy="5" r="2.16"/><line class="cls-2" x1="10.42" y1="49.71" x2="10.42" y2="139.71"/><line class="cls-2" x1="100.62" y1="49.71" x2="100.62" y2="139.88"/><line class="cls-2" x1="55.48" y1="4.8" x2="55.48" y2="139.53"/><line class="cls-2" x1="145.41" y1="5.15" x2="145.41" y2="49.94"/><path d="M107.46,144.74a1.66,1.66,0,0,0,.84.38,1.53,1.53,0,0,0,1.18-.59,2.18,2.18,0,0,0,.5-1.46,2.27,2.27,0,0,0-1.62-2.19,4.29,4.29,0,0,0-1.67-.37h-.16s0,0-.08-.06a.31.31,0,0,0,0-.08s0,0,0-.06l1.28-2.8h2.51a.48.48,0,0,0,.29-.07,1.28,1.28,0,0,0,.27-.24l.09.09-.45,1.08s-.06.06-.13.07h-2.5l-.5,1a10,10,0,0,1,1.41.31,3.13,3.13,0,0,1,1.23.72,3,3,0,0,1,.64.94,2.92,2.92,0,0,1,.22,1.1,2.84,2.84,0,0,1-.93,2.16,3.66,3.66,0,0,1-3.26.76c-.39-.13-.59-.34-.59-.65a.42.42,0,0,1,.13-.31.5.5,0,0,1,.39-.13A1.68,1.68,0,0,1,107.46,144.74Z" transform="translate(-0.13 -2.02)"/><path d="M1.14,50.28A2,2,0,0,1,.7,49a1.68,1.68,0,0,1,.64-1.31A2.52,2.52,0,0,1,3,47.18a2.13,2.13,0,0,1,1.5.51,1.58,1.58,0,0,1,.56,1.19,1.69,1.69,0,0,1-.57,1.23,5.77,5.77,0,0,1-1.06.71,7.67,7.67,0,0,1,1.43,1.29A2,2,0,0,1,5.3,53.4a1.86,1.86,0,0,1-.64,1.42,2.44,2.44,0,0,1-1.7.57,2.56,2.56,0,0,1-1.64-.53,1.69,1.69,0,0,1-.68-1.4,2,2,0,0,1,.47-1.31,5.65,5.65,0,0,1,1.08-.88A7,7,0,0,1,1.14,50.28ZM4,54.68a1.32,1.32,0,0,0,.34-.93,1.45,1.45,0,0,0-.36-1,10.41,10.41,0,0,0-1.51-1.2,1.86,1.86,0,0,0-.73.82,2.37,2.37,0,0,0-.23,1A1.84,1.84,0,0,0,2,54.58,1.31,1.31,0,0,0,3,55.06,1.32,1.32,0,0,0,4,54.68Zm-.18-4.74a1.68,1.68,0,0,0,.36-1.09,1.41,1.41,0,0,0-.34-.94,1.32,1.32,0,0,0-1-.39,1.21,1.21,0,0,0-.89.34,1.08,1.08,0,0,0-.36.82,1.49,1.49,0,0,0,.42,1,4.5,4.5,0,0,0,1.08.89A4.51,4.51,0,0,0,3.86,49.94Z" transform="translate(-0.13 -2.02)"/><path d="M151.91,10a1.72,1.72,0,0,0,.9.34A1.41,1.41,0,0,0,154,9.74a2.06,2.06,0,0,0,.4-1.2,1.91,1.91,0,0,0-.33-1.11,2.06,2.06,0,0,0-1.84-.8h-.14l-.17,0V6.49a5,5,0,0,0,1.48-.77A1.43,1.43,0,0,0,154,4.56a1.17,1.17,0,0,0-.43-1,1.52,1.52,0,0,0-1-.33,1.58,1.58,0,0,0-1.13.47,3.6,3.6,0,0,0-.58.8l-.18,0a2.61,2.61,0,0,1,.87-1.42A2.21,2.21,0,0,1,153,2.52,1.91,1.91,0,0,1,154.4,3a1.56,1.56,0,0,1,.49,1.14,1.6,1.6,0,0,1-.4,1,4.35,4.35,0,0,1-.71.61,3.23,3.23,0,0,1,.9.56,2.1,2.1,0,0,1,.64,1.56,2.64,2.64,0,0,1-.88,2,3.4,3.4,0,0,1-2.49.85,1.79,1.79,0,0,1-1-.21.59.59,0,0,1-.29-.46.58.58,0,0,1,.09-.3.37.37,0,0,1,.32-.14A1.81,1.81,0,0,1,151.91,10Z" transform="translate(-0.13 -2.02)"/><path d="M161.07,4a5.57,5.57,0,0,1,.59,2.63,6.53,6.53,0,0,1-.36,2.19,2.45,2.45,0,0,1-2.37,1.94,2.25,2.25,0,0,1-1.9-1,5.18,5.18,0,0,1-.8-3.05,6,6,0,0,1,.53-2.6A2.35,2.35,0,0,1,159,2.58,2.28,2.28,0,0,1,161.07,4Zm-.89,5.49a8.75,8.75,0,0,0,.32-2.73,10.54,10.54,0,0,0-.19-2.27c-.24-1.06-.7-1.58-1.36-1.58s-1.12.54-1.37,1.62a11.59,11.59,0,0,0-.19,2.29,9.21,9.21,0,0,0,.2,2.12c.25,1,.72,1.49,1.41,1.49A1.19,1.19,0,0,0,160.18,9.48Z" transform="translate(-0.13 -2.02)"/><path d="M60.38,10.51a37.77,37.77,0,0,0,2.91-3.27,3.44,3.44,0,0,0,.77-2,1.76,1.76,0,0,0-.47-1.32,1.56,1.56,0,0,0-1.12-.45,1.61,1.61,0,0,0-1.3.58,3.43,3.43,0,0,0-.53,1l-.25,0a3.06,3.06,0,0,1,1-1.87,2.47,2.47,0,0,1,1.5-.53,2.15,2.15,0,0,1,1.61.63,2.07,2.07,0,0,1,.61,1.52,3.06,3.06,0,0,1-.66,1.85,39.88,39.88,0,0,1-2.88,3.17h2.69A1.66,1.66,0,0,0,65,9.59a1.71,1.71,0,0,0,.52-.65l.15.07-.65,1.63H60.38Z" transform="translate(-0.13 -2.02)"/><path d="M69.9,2.59h.56V7.87h1.23v.78H70.46v2h-.93v-2H66.15V7.87ZM69.52,3.8,66.64,7.87h2.88Z" transform="translate(-0.13 -2.02)"/><path d="M63.6,47.26v7.12q0,.45.24.57a2.53,2.53,0,0,0,.9.15v.16H61.43v-.17a2,2,0,0,0,.93-.2c.14-.1.21-.33.21-.68V48.78a1,1,0,0,0-.07-.43c0-.09-.14-.14-.3-.14a1.55,1.55,0,0,0-.4.08l-.45.18v-.16l2.15-1.1h.07S63.59,47.25,63.6,47.26Z" transform="translate(-0.13 -2.02)"/><path d="M66.38,55.13a36.3,36.3,0,0,0,2.91-3.27,3.44,3.44,0,0,0,.77-2,1.76,1.76,0,0,0-.47-1.32,1.56,1.56,0,0,0-1.12-.45,1.61,1.61,0,0,0-1.3.58,3.43,3.43,0,0,0-.53,1l-.25-.05a3.06,3.06,0,0,1,1-1.87,2.47,2.47,0,0,1,1.5-.53,2.15,2.15,0,0,1,1.61.63,2.07,2.07,0,0,1,.61,1.52,3.06,3.06,0,0,1-.66,1.85,39.88,39.88,0,0,1-2.88,3.17h2.69a1.66,1.66,0,0,0,.79-.14,1.71,1.71,0,0,0,.52-.65l.15.07-.65,1.63H66.38Z" transform="translate(-0.13 -2.02)"/><path d="M109.27,47.26v7.12q0,.45.24.57a2.53,2.53,0,0,0,.9.15v.16H107.1v-.17a2,2,0,0,0,.93-.2c.14-.1.21-.33.21-.68V48.78a1,1,0,0,0-.07-.43.3.3,0,0,0-.3-.14,1.55,1.55,0,0,0-.4.08l-.45.18v-.16l2.15-1.1h.07S109.26,47.25,109.27,47.26Z" transform="translate(-0.13 -2.02)"/><path d="M116.63,48.61a5.57,5.57,0,0,1,.6,2.63,6.64,6.64,0,0,1-.37,2.2,2.45,2.45,0,0,1-2.37,1.93,2.26,2.26,0,0,1-1.9-1,5.18,5.18,0,0,1-.8-3,5.83,5.83,0,0,1,.54-2.6,2.34,2.34,0,0,1,2.21-1.48A2.28,2.28,0,0,1,116.63,48.61Zm-.89,5.49a8.7,8.7,0,0,0,.33-2.73,10.44,10.44,0,0,0-.2-2.27c-.24-1.06-.69-1.58-1.36-1.58s-1.12.54-1.36,1.63a10.61,10.61,0,0,0-.2,2.28,9.21,9.21,0,0,0,.2,2.12c.25,1,.72,1.49,1.41,1.49A1.19,1.19,0,0,0,115.74,54.1Z" transform="translate(-0.13 -2.02)"/><path d="M3.88,92.88h.56v5.28H5.67v.78H4.44v2H3.51v-2H.13v-.78ZM3.5,94.09.62,98.16H3.5Z" transform="translate(-0.13 -2.02)"/><path d="M.36,145.3A38.06,38.06,0,0,0,3.27,142,3.49,3.49,0,0,0,4,140a1.75,1.75,0,0,0-.47-1.31,1.53,1.53,0,0,0-1.12-.46,1.62,1.62,0,0,0-1.3.59,3.18,3.18,0,0,0-.53,1l-.25-.06a3.06,3.06,0,0,1,1-1.87,2.47,2.47,0,0,1,1.51-.52,2.16,2.16,0,0,1,1.6.62,2.1,2.1,0,0,1,.61,1.53,3.08,3.08,0,0,1-.66,1.85,38.54,38.54,0,0,1-2.88,3.16H4.23a1.68,1.68,0,0,0,.79-.13,1.77,1.77,0,0,0,.52-.66l.15.07L5,145.44H.36Z" transform="translate(-0.13 -2.02)"/></svg>