<?xml version="1.0" encoding="UTF-8"?>
<svg xmlns="http://www.w3.org/2000/svg" xmlns:xlink="http://www.w3.org/1999/xlink" width="100px" height="89px" viewBox="0 0 100 89" version="1.1">
<g id="surface1">
<path style=" stroke:none;fill-rule:nonzero;fill:rgb(0%,40%,60%);fill-opacity:1;" d="M 63.628906 86.660156 C 63.628906 87.398438 63.03125 88 62.292969 88 C 61.554688 88 60.953125 87.398438 60.953125 86.660156 C 60.953125 85.917969 61.554688 85.320312 62.292969 85.320312 C 63.03125 85.320312 63.628906 85.917969 63.628906 86.660156 Z M 63.628906 86.660156 "/>
<path style=" stroke:none;fill-rule:nonzero;fill:rgb(0%,40%,60%);fill-opacity:1;" d="M 7.789062 30.835938 C 7.789062 31.574219 7.1875 32.175781 6.449219 32.175781 C 5.710938 32.175781 5.113281 31.574219 5.113281 30.835938 C 5.113281 30.097656 5.710938 29.496094 6.449219 29.496094 C 7.1875 29.496094 7.789062 30.097656 7.789062 30.835938 Z M 7.789062 30.835938 "/>
<path style=" stroke:none;fill-rule:nonzero;fill:rgb(0%,40%,60%);fill-opacity:1;" d="M 7.789062 58.988281 C 7.789062 59.730469 7.1875 60.328125 6.449219 60.328125 C 5.710938 60.328125 5.113281 59.730469 5.113281 58.988281 C 5.113281 58.25 5.710938 57.648438 6.449219 57.648438 C 7.1875 57.648438 7.789062 58.25 7.789062 58.988281 Z M 7.789062 58.988281 "/>
<path style=" stroke:none;fill-rule:nonzero;fill:rgb(0%,40%,60%);fill-opacity:1;" d="M 35.683594 86.660156 C 35.683594 87.398438 35.085938 88 34.347656 88 C 33.609375 88 33.007812 87.398438 33.007812 86.660156 C 33.007812 85.917969 33.609375 85.320312 34.347656 85.320312 C 35.085938 85.320312 35.683594 85.917969 35.683594 86.660156 Z M 35.683594 86.660156 "/>
<path style="fill:none;stroke-width:0.3;stroke-linecap:butt;stroke-linejoin:miter;stroke:rgb(0%,40%,60%);stroke-opacity:1;stroke-miterlimit:10;" d="M 55.582725 4.968683 L 10.310157 49.88224 " transform="matrix(0.61908,0,0,0.619854,0,0.00998654)"/>
<path style="fill:none;stroke-width:0.3;stroke-linecap:butt;stroke-linejoin:miter;stroke:rgb(0%,40%,60%);stroke-opacity:1;stroke-miterlimit:10;" d="M 10.310157 139.532903 L 146.007977 5.151437 " transform="matrix(0.61908,0,0,0.619854,0,0.00998654)"/>
<path style=" stroke:none;fill-rule:nonzero;fill:rgb(0%,40%,60%);fill-opacity:1;" d="M 7.789062 86.660156 C 7.789062 87.398438 7.1875 88 6.449219 88 C 5.710938 88 5.113281 87.398438 5.113281 86.660156 C 5.113281 85.917969 5.710938 85.320312 6.449219 85.320312 C 7.1875 85.320312 7.789062 85.917969 7.789062 86.660156 Z M 7.789062 86.660156 "/>
<path style=" stroke:none;fill-rule:nonzero;fill:rgb(0%,40%,60%);fill-opacity:1;" d="M 35.683594 30.835938 C 35.683594 31.574219 35.085938 32.175781 34.347656 32.175781 C 33.609375 32.175781 33.007812 31.574219 33.007812 30.835938 C 33.007812 30.097656 33.609375 29.496094 34.347656 29.496094 C 35.085938 29.496094 35.683594 30.097656 35.683594 30.835938 Z M 35.683594 30.835938 "/>
<path style=" stroke:none;fill-rule:nonzero;fill:rgb(0%,0%,0%);fill-opacity:1;" d="M 38.179688 88.488281 C 38.34375 88.605469 38.535156 88.675781 38.734375 88.691406 C 39.027344 88.714844 39.3125 88.585938 39.492188 88.351562 C 39.652344 88.136719 39.738281 87.871094 39.738281 87.601562 C 39.742188 87.359375 39.671875 87.121094 39.539062 86.917969 C 39.273438 86.566406 38.84375 86.375 38.402344 86.417969 L 38.210938 86.417969 L 38.210938 86.324219 C 38.535156 86.210938 38.84375 86.050781 39.121094 85.839844 C 39.339844 85.667969 39.460938 85.402344 39.453125 85.121094 C 39.476562 84.886719 39.378906 84.652344 39.195312 84.503906 C 39.019531 84.359375 38.800781 84.285156 38.574219 84.292969 C 38.308594 84.292969 38.054688 84.398438 37.867188 84.589844 C 37.730469 84.734375 37.609375 84.902344 37.511719 85.078125 L 37.398438 85.078125 C 37.480469 84.734375 37.667969 84.429688 37.9375 84.199219 C 38.191406 83.980469 38.519531 83.863281 38.851562 83.871094 C 39.167969 83.847656 39.476562 83.957031 39.707031 84.171875 C 39.902344 84.355469 40.011719 84.613281 40.011719 84.878906 C 40.003906 85.109375 39.914062 85.328125 39.761719 85.5 C 39.632812 85.644531 39.484375 85.769531 39.324219 85.871094 C 39.527344 85.953125 39.71875 86.070312 39.882812 86.21875 C 40.144531 86.46875 40.289062 86.820312 40.277344 87.1875 C 40.28125 87.660156 40.082031 88.109375 39.734375 88.425781 C 39.308594 88.796875 38.753906 88.988281 38.191406 88.953125 C 37.976562 88.96875 37.761719 88.921875 37.570312 88.816406 C 37.46875 88.757812 37.402344 88.648438 37.390625 88.53125 C 37.390625 88.464844 37.414062 88.402344 37.453125 88.351562 C 37.5 88.292969 37.570312 88.257812 37.644531 88.265625 C 37.839844 88.285156 38.027344 88.363281 38.179688 88.488281 Z M 38.179688 88.488281 "/>
<path style=" stroke:none;fill-rule:nonzero;fill:rgb(0%,40%,60%);fill-opacity:1;" d="M 62.027344 5.15625 C 62.183594 5.117188 62.332031 5.035156 62.441406 4.914062 C 62.667969 4.609375 62.875 4.289062 63.058594 3.957031 L 65.351562 -0.00390625 L 65.542969 -0.00390625 L 66.296875 4.464844 C 66.308594 4.65625 66.371094 4.84375 66.46875 5.007812 C 66.59375 5.097656 66.746094 5.144531 66.898438 5.140625 L 66.898438 5.273438 L 64.921875 5.273438 L 64.921875 5.140625 C 65.078125 5.136719 65.230469 5.105469 65.375 5.054688 C 65.484375 5.003906 65.550781 4.890625 65.542969 4.769531 L 65.542969 4.648438 C 65.542969 4.601562 65.542969 4.566406 65.542969 4.535156 L 65.367188 3.5 L 63.683594 3.5 L 63.191406 4.386719 C 63.15625 4.449219 63.128906 4.511719 63.101562 4.578125 C 63.0625 4.671875 63.039062 4.773438 63.035156 4.875 C 63.027344 4.960938 63.070312 5.042969 63.140625 5.085938 C 63.253906 5.136719 63.378906 5.160156 63.503906 5.15625 L 63.503906 5.285156 L 62.027344 5.285156 Z M 65.324219 3.222656 L 64.992188 1.167969 L 63.847656 3.222656 Z M 65.324219 3.222656 "/>
<path style="fill:none;stroke-width:0.3;stroke-linecap:butt;stroke-linejoin:miter;stroke:rgb(0%,40%,60%);stroke-opacity:1;stroke-miterlimit:10;" d="M 145.402239 49.88224 L 55.582725 140.062261 " transform="matrix(0.61908,0,0,0.619854,0,0.00998654)"/>
<path style="fill:none;stroke-width:0.3;stroke-linecap:butt;stroke-linejoin:miter;stroke:rgb(0%,40%,60%);stroke-opacity:1;stroke-miterlimit:10;" d="M 10.49314 95.148704 L 55.582725 49.712089 " transform="matrix(0.61908,0,0,0.619854,0,0.00998654)"/>
<path style=" stroke:none;fill-rule:nonzero;fill:rgb(0%,40%,60%);fill-opacity:1;" d="M 63.628906 30.835938 C 63.628906 31.574219 63.03125 32.175781 62.292969 32.175781 C 61.554688 32.175781 60.953125 31.574219 60.953125 30.835938 C 60.953125 30.097656 61.554688 29.496094 62.292969 29.496094 C 63.03125 29.496094 63.628906 30.097656 63.628906 30.835938 Z M 63.628906 30.835938 "/>
<path style=" stroke:none;fill-rule:nonzero;fill:rgb(0%,40%,60%);fill-opacity:1;" d="M 35.683594 3.109375 C 35.683594 3.847656 35.085938 4.449219 34.347656 4.449219 C 33.609375 4.449219 33.007812 3.847656 33.007812 3.109375 C 33.007812 2.371094 33.609375 1.769531 34.347656 1.769531 C 35.085938 1.769531 35.683594 2.371094 35.683594 3.109375 Z M 35.683594 3.109375 "/>
<path style=" stroke:none;fill-rule:nonzero;fill:rgb(0%,40%,60%);fill-opacity:1;" d="M 91.433594 3.109375 C 91.433594 3.847656 90.832031 4.449219 90.09375 4.449219 C 89.355469 4.449219 88.757812 3.847656 88.757812 3.109375 C 88.757812 2.371094 89.355469 1.769531 90.09375 1.769531 C 90.832031 1.769531 91.433594 2.371094 91.433594 3.109375 Z M 91.433594 3.109375 "/>
<path style="fill:none;stroke-width:0.3;stroke-linecap:butt;stroke-linejoin:miter;stroke:rgb(0%,40%,60%);stroke-opacity:1;stroke-miterlimit:10;" d="M 10.417423 49.712089 L 10.417423 139.709355 " transform="matrix(0.61908,0,0,0.619854,0,0.00998654)"/>
<path style="fill:none;stroke-width:0.3;stroke-linecap:butt;stroke-linejoin:miter;stroke:rgb(0%,40%,60%);stroke-opacity:1;stroke-miterlimit:10;" d="M 100.621832 49.712089 L 100.621832 139.879506 " transform="matrix(0.61908,0,0,0.619854,0,0.00998654)"/>
<path style="fill:none;stroke-width:0.3;stroke-linecap:butt;stroke-linejoin:miter;stroke:rgb(0%,40%,60%);stroke-opacity:1;stroke-miterlimit:10;" d="M 55.481769 4.798532 L 55.481769 139.532903 " transform="matrix(0.61908,0,0,0.619854,0,0.00998654)"/>
<path style="fill:none;stroke-width:0.3;stroke-linecap:butt;stroke-linejoin:miter;stroke:rgb(0%,40%,60%);stroke-opacity:1;stroke-miterlimit:10;" d="M 145.408549 5.151437 L 145.408549 49.938957 " transform="matrix(0.61908,0,0,0.619854,0,0.00998654)"/>
<path style=" stroke:none;fill-rule:nonzero;fill:rgb(0%,0%,0%);fill-opacity:1;" d="M 66.445312 88.476562 C 66.59375 88.601562 66.773438 88.683594 66.964844 88.710938 C 67.253906 88.707031 67.519531 88.570312 67.695312 88.34375 C 67.90625 88.089844 68.015625 87.769531 68.007812 87.441406 C 68.011719 86.816406 67.601562 86.261719 67.003906 86.082031 C 66.675781 85.9375 66.324219 85.859375 65.96875 85.855469 L 65.871094 85.855469 C 65.871094 85.855469 65.871094 85.855469 65.820312 85.816406 C 65.824219 85.800781 65.824219 85.785156 65.820312 85.765625 C 65.820312 85.765625 65.820312 85.765625 65.820312 85.730469 L 66.613281 83.992188 L 68.167969 83.992188 C 68.230469 84 68.292969 83.984375 68.347656 83.949219 C 68.410156 83.910156 68.464844 83.859375 68.511719 83.800781 L 68.570312 83.859375 L 68.289062 84.527344 C 68.289062 84.527344 68.253906 84.5625 68.210938 84.570312 L 66.664062 84.570312 L 66.351562 85.191406 C 66.648438 85.234375 66.941406 85.296875 67.226562 85.382812 C 67.511719 85.46875 67.769531 85.625 67.988281 85.828125 C 68.15625 85.996094 68.289062 86.195312 68.382812 86.410156 C 68.472656 86.628906 68.519531 86.859375 68.519531 87.09375 C 68.53125 87.601562 68.320312 88.089844 67.945312 88.433594 C 67.386719 88.90625 66.636719 89.082031 65.925781 88.902344 C 65.683594 88.824219 65.5625 88.691406 65.5625 88.5 C 65.558594 88.429688 65.589844 88.359375 65.640625 88.308594 C 65.707031 88.246094 65.792969 88.21875 65.882812 88.226562 C 66.089844 88.25 66.289062 88.335938 66.445312 88.476562 Z M 66.445312 88.476562 "/>
<path style=" stroke:none;fill-rule:nonzero;fill:rgb(0%,0%,0%);fill-opacity:1;" d="M 0.625 29.925781 C 0.445312 29.699219 0.347656 29.417969 0.351562 29.128906 C 0.355469 28.8125 0.5 28.515625 0.75 28.320312 C 1.042969 28.09375 1.40625 27.984375 1.777344 28.003906 C 2.117188 27.984375 2.449219 28.097656 2.707031 28.320312 C 2.921875 28.503906 3.050781 28.773438 3.050781 29.054688 C 3.046875 29.347656 2.917969 29.625 2.699219 29.820312 C 2.496094 29.988281 2.277344 30.136719 2.042969 30.257812 C 2.371094 30.488281 2.667969 30.753906 2.929688 31.058594 C 3.109375 31.285156 3.207031 31.566406 3.199219 31.859375 C 3.203125 32.195312 3.058594 32.515625 2.804688 32.738281 C 2.511719 32.984375 2.136719 33.113281 1.753906 33.089844 C 1.386719 33.101562 1.027344 32.988281 0.738281 32.761719 C 0.464844 32.558594 0.308594 32.234375 0.316406 31.894531 C 0.3125 31.597656 0.414062 31.308594 0.605469 31.082031 C 0.804688 30.875 1.03125 30.691406 1.273438 30.539062 C 1.039062 30.355469 0.820312 30.152344 0.625 29.925781 Z M 2.394531 32.652344 C 2.539062 32.492188 2.613281 32.289062 2.605469 32.074219 C 2.613281 31.847656 2.535156 31.625 2.382812 31.457031 C 2.09375 31.179688 1.78125 30.929688 1.449219 30.710938 C 1.25 30.832031 1.09375 31.007812 0.996094 31.21875 C 0.90625 31.414062 0.855469 31.625 0.855469 31.839844 C 0.859375 32.117188 0.96875 32.386719 1.15625 32.589844 C 1.308594 32.777344 1.535156 32.882812 1.777344 32.886719 C 2.007812 32.898438 2.230469 32.8125 2.394531 32.652344 Z M 2.285156 29.714844 C 2.4375 29.519531 2.515625 29.28125 2.507812 29.039062 C 2.511719 28.824219 2.4375 28.617188 2.296875 28.457031 C 2.132812 28.289062 1.910156 28.203125 1.675781 28.214844 C 1.472656 28.207031 1.273438 28.28125 1.125 28.425781 C 0.984375 28.554688 0.902344 28.738281 0.902344 28.933594 C 0.910156 29.164062 1.003906 29.386719 1.164062 29.550781 C 1.355469 29.769531 1.582031 29.957031 1.832031 30.105469 C 2.003906 29.992188 2.164062 29.859375 2.308594 29.714844 Z M 2.285156 29.714844 "/>
<path style=" stroke:none;fill-rule:nonzero;fill:rgb(0%,0%,0%);fill-opacity:1;" d="M 93.964844 4.957031 C 94.125 5.078125 94.320312 5.152344 94.519531 5.167969 C 94.8125 5.175781 95.089844 5.035156 95.257812 4.796875 C 95.417969 4.578125 95.503906 4.320312 95.503906 4.050781 C 95.511719 3.804688 95.4375 3.566406 95.300781 3.363281 C 95.03125 3.011719 94.601562 2.824219 94.160156 2.867188 L 93.96875 2.867188 L 93.96875 2.78125 C 94.300781 2.675781 94.609375 2.511719 94.886719 2.304688 C 95.117188 2.136719 95.257812 1.871094 95.257812 1.585938 C 95.277344 1.347656 95.175781 1.113281 94.992188 0.964844 C 94.816406 0.824219 94.597656 0.753906 94.371094 0.761719 C 94.109375 0.757812 93.859375 0.863281 93.671875 1.050781 C 93.53125 1.199219 93.410156 1.367188 93.3125 1.546875 L 93.203125 1.546875 C 93.28125 1.203125 93.46875 0.894531 93.742188 0.667969 C 93.988281 0.445312 94.308594 0.324219 94.640625 0.320312 C 94.957031 0.296875 95.269531 0.40625 95.503906 0.617188 C 95.699219 0.800781 95.808594 1.058594 95.808594 1.324219 C 95.800781 1.554688 95.710938 1.773438 95.5625 1.945312 C 95.429688 2.085938 95.28125 2.210938 95.121094 2.320312 C 95.324219 2.40625 95.511719 2.523438 95.679688 2.667969 C 95.941406 2.921875 96.082031 3.273438 96.074219 3.636719 C 96.082031 4.109375 95.882812 4.5625 95.53125 4.875 C 95.109375 5.25 94.550781 5.441406 93.988281 5.402344 C 93.773438 5.421875 93.558594 5.375 93.371094 5.273438 C 93.265625 5.210938 93.199219 5.105469 93.191406 4.988281 C 93.191406 4.921875 93.210938 4.855469 93.246094 4.800781 C 93.292969 4.742188 93.367188 4.707031 93.445312 4.714844 C 93.636719 4.75 93.816406 4.832031 93.964844 4.957031 Z M 93.964844 4.957031 "/>
<path style=" stroke:none;fill-rule:nonzero;fill:rgb(0%,0%,0%);fill-opacity:1;" d="M 99.632812 1.238281 C 99.886719 1.742188 100.011719 2.300781 100 2.867188 C 100.003906 3.328125 99.929688 3.789062 99.777344 4.226562 C 99.628906 4.921875 99.019531 5.417969 98.308594 5.425781 C 97.839844 5.433594 97.394531 5.199219 97.132812 4.808594 C 96.777344 4.246094 96.601562 3.582031 96.636719 2.917969 C 96.625 2.363281 96.738281 1.8125 96.964844 1.304688 C 97.179688 0.726562 97.738281 0.347656 98.351562 0.355469 C 98.917969 0.367188 99.421875 0.714844 99.632812 1.238281 Z M 99.082031 4.640625 C 99.238281 4.089844 99.304688 3.519531 99.28125 2.949219 C 99.292969 2.476562 99.253906 2.003906 99.164062 1.542969 C 99.015625 0.882812 98.730469 0.5625 98.324219 0.5625 C 97.914062 0.5625 97.628906 0.894531 97.472656 1.566406 C 97.386719 2.035156 97.347656 2.507812 97.355469 2.984375 C 97.347656 3.425781 97.386719 3.867188 97.480469 4.300781 C 97.636719 4.917969 97.925781 5.222656 98.351562 5.222656 C 98.707031 5.226562 99.011719 4.980469 99.082031 4.632812 Z M 99.082031 4.640625 "/>
<path style=" stroke:none;fill-rule:nonzero;fill:rgb(0%,0%,0%);fill-opacity:1;" d="M 37.300781 5.273438 C 37.9375 4.632812 38.539062 3.957031 39.101562 3.246094 C 39.386719 2.894531 39.554688 2.460938 39.578125 2.007812 C 39.597656 1.703125 39.492188 1.410156 39.285156 1.1875 C 39.101562 1.003906 38.851562 0.90625 38.59375 0.910156 C 38.285156 0.898438 37.988281 1.03125 37.789062 1.269531 C 37.644531 1.457031 37.535156 1.664062 37.460938 1.886719 L 37.304688 1.886719 C 37.367188 1.441406 37.585938 1.027344 37.925781 0.730469 C 38.191406 0.519531 38.515625 0.40625 38.851562 0.402344 C 39.226562 0.386719 39.585938 0.527344 39.851562 0.789062 C 40.101562 1.039062 40.238281 1.378906 40.226562 1.734375 C 40.222656 2.148438 40.078125 2.554688 39.820312 2.878906 C 39.261719 3.566406 38.664062 4.222656 38.035156 4.84375 L 39.703125 4.84375 C 39.863281 4.835938 40.019531 4.785156 40.160156 4.703125 C 40.296875 4.597656 40.410156 4.457031 40.480469 4.300781 L 40.574219 4.34375 L 40.171875 5.351562 L 37.300781 5.351562 Z M 37.300781 5.273438 "/>
<path style=" stroke:none;fill-rule:nonzero;fill:rgb(0%,0%,0%);fill-opacity:1;" d="M 43.191406 0.363281 L 43.539062 0.363281 L 43.539062 3.636719 L 44.300781 3.636719 L 44.300781 4.121094 L 43.539062 4.121094 L 43.539062 5.359375 L 42.964844 5.359375 L 42.964844 4.121094 L 40.871094 4.121094 L 40.871094 3.636719 Z M 42.957031 1.113281 L 41.175781 3.636719 L 42.957031 3.636719 Z M 42.957031 1.113281 "/>
<path style=" stroke:none;fill-rule:nonzero;fill:rgb(0%,0%,0%);fill-opacity:1;" d="M 39.292969 28.050781 L 39.292969 32.464844 C 39.292969 32.652344 39.34375 32.769531 39.441406 32.820312 C 39.621094 32.882812 39.808594 32.914062 40 32.910156 L 40 33.011719 L 37.949219 33.011719 L 37.949219 32.90625 C 38.148438 32.910156 38.347656 32.867188 38.523438 32.78125 C 38.613281 32.71875 38.65625 32.578125 38.65625 32.359375 L 38.65625 28.996094 C 38.660156 28.902344 38.644531 28.8125 38.613281 28.726562 C 38.613281 28.671875 38.523438 28.640625 38.425781 28.640625 C 38.34375 28.648438 38.257812 28.664062 38.179688 28.691406 L 37.898438 28.800781 L 37.898438 28.703125 L 39.230469 28.019531 L 39.273438 28.019531 C 39.273438 28.019531 39.285156 28.046875 39.292969 28.050781 Z M 39.292969 28.050781 "/>
<path style=" stroke:none;fill-rule:nonzero;fill:rgb(0%,0%,0%);fill-opacity:1;" d="M 41.015625 32.929688 C 41.65625 32.292969 42.257812 31.613281 42.816406 30.902344 C 43.101562 30.550781 43.269531 30.117188 43.292969 29.664062 C 43.3125 29.363281 43.207031 29.066406 43 28.84375 C 42.816406 28.664062 42.566406 28.5625 42.308594 28.566406 C 42 28.554688 41.699219 28.6875 41.503906 28.925781 C 41.359375 29.113281 41.25 29.324219 41.175781 29.546875 L 41.019531 29.515625 C 41.082031 29.066406 41.300781 28.65625 41.640625 28.355469 C 41.902344 28.148438 42.230469 28.03125 42.566406 28.027344 C 42.941406 28.011719 43.300781 28.152344 43.566406 28.417969 C 43.816406 28.667969 43.949219 29.007812 43.941406 29.359375 C 43.9375 29.777344 43.792969 30.179688 43.535156 30.507812 C 42.976562 31.191406 42.378906 31.847656 41.75 32.472656 L 43.417969 32.472656 C 43.582031 32.484375 43.75 32.453125 43.90625 32.386719 C 44.042969 32.277344 44.15625 32.140625 44.226562 31.980469 L 44.320312 32.027344 L 43.917969 33.035156 L 41.015625 33.035156 Z M 41.015625 32.929688 "/>
<path style=" stroke:none;fill-rule:nonzero;fill:rgb(0%,0%,0%);fill-opacity:1;" d="M 67.566406 28.050781 L 67.566406 32.464844 C 67.566406 32.652344 67.617188 32.769531 67.714844 32.820312 C 67.894531 32.882812 68.082031 32.914062 68.273438 32.910156 L 68.273438 33.011719 L 66.222656 33.011719 L 66.222656 32.90625 C 66.421875 32.910156 66.621094 32.867188 66.796875 32.78125 C 66.886719 32.71875 66.929688 32.578125 66.929688 32.359375 L 66.929688 28.996094 C 66.933594 28.902344 66.917969 28.8125 66.886719 28.726562 C 66.847656 28.664062 66.773438 28.628906 66.699219 28.640625 C 66.617188 28.648438 66.53125 28.664062 66.453125 28.691406 L 66.171875 28.800781 L 66.171875 28.703125 L 67.503906 28.019531 L 67.546875 28.019531 C 67.546875 28.019531 67.558594 28.046875 67.566406 28.050781 Z M 67.566406 28.050781 "/>
<path style=" stroke:none;fill-rule:nonzero;fill:rgb(0%,0%,0%);fill-opacity:1;" d="M 72.121094 28.890625 C 72.378906 29.394531 72.503906 29.953125 72.496094 30.519531 C 72.496094 30.984375 72.417969 31.445312 72.265625 31.882812 C 72.113281 32.574219 71.507812 33.070312 70.796875 33.078125 C 70.328125 33.085938 69.882812 32.851562 69.621094 32.460938 C 69.269531 31.90625 69.097656 31.253906 69.125 30.601562 C 69.113281 30.042969 69.226562 29.492188 69.460938 28.988281 C 69.683594 28.425781 70.226562 28.0625 70.828125 28.070312 C 71.382812 28.066406 71.890625 28.386719 72.121094 28.890625 Z M 71.570312 32.292969 C 71.730469 31.742188 71.796875 31.171875 71.777344 30.601562 C 71.785156 30.128906 71.746094 29.65625 71.652344 29.191406 C 71.503906 28.535156 71.226562 28.214844 70.808594 28.214844 C 70.394531 28.214844 70.117188 28.546875 69.96875 29.222656 C 69.875 29.6875 69.835938 30.164062 69.84375 30.636719 C 69.835938 31.078125 69.875 31.519531 69.96875 31.949219 C 70.125 32.570312 70.414062 32.875 70.839844 32.875 C 71.191406 32.878906 71.5 32.636719 71.570312 32.292969 Z M 71.570312 32.292969 "/>
<path style=" stroke:none;fill-rule:nonzero;fill:rgb(0%,0%,0%);fill-opacity:1;" d="M 2.320312 56.328125 L 2.667969 56.328125 L 2.667969 59.601562 L 3.429688 59.601562 L 3.429688 60.085938 L 2.667969 60.085938 L 2.667969 61.324219 L 2.09375 61.324219 L 2.09375 60.085938 L 0 60.085938 L 0 59.601562 Z M 2.085938 57.078125 L 0.304688 59.601562 L 2.085938 59.601562 Z M 2.085938 57.078125 "/>
<path style=" stroke:none;fill-rule:nonzero;fill:rgb(0%,0%,0%);fill-opacity:1;" d="M 0.140625 88.824219 C 0.78125 88.175781 1.382812 87.492188 1.945312 86.777344 C 2.21875 86.421875 2.378906 85.988281 2.394531 85.539062 C 2.414062 85.238281 2.308594 84.945312 2.105469 84.726562 C 1.921875 84.539062 1.671875 84.4375 1.410156 84.441406 C 1.101562 84.429688 0.804688 84.566406 0.605469 84.804688 C 0.460938 84.992188 0.351562 85.203125 0.277344 85.425781 L 0.125 85.386719 C 0.1875 84.941406 0.40625 84.53125 0.742188 84.230469 C 1.011719 84.019531 1.339844 83.90625 1.675781 83.90625 C 2.046875 83.894531 2.40625 84.03125 2.667969 84.292969 C 2.917969 84.542969 3.054688 84.886719 3.046875 85.238281 C 3.039062 85.65625 2.894531 86.058594 2.636719 86.386719 C 2.078125 87.070312 1.484375 87.726562 0.855469 88.34375 L 2.539062 88.34375 C 2.707031 88.359375 2.875 88.332031 3.027344 88.265625 C 3.164062 88.15625 3.277344 88.015625 3.347656 87.855469 L 3.441406 87.898438 L 3.015625 88.910156 L 0.140625 88.910156 Z M 0.140625 88.824219 "/>
</g>
</svg>
