<?xml version="1.0" encoding="UTF-8"?>
<svg xmlns="http://www.w3.org/2000/svg" xmlns:xlink="http://www.w3.org/1999/xlink" width="169px" height="150px" viewBox="0 0 168 150" version="1.1">
<g id="surface1">
<path style=" stroke:none;fill-rule:nonzero;fill:rgb(0%,40%,60%);fill-opacity:1;" d="M 106.898438 146.054688 C 106.898438 147.300781 105.890625 148.3125 104.648438 148.3125 C 103.410156 148.3125 102.402344 147.300781 102.402344 146.054688 C 102.402344 144.808594 103.410156 143.796875 104.648438 143.796875 C 105.890625 143.796875 106.898438 144.808594 106.898438 146.054688 Z M 106.898438 146.054688 "/>
<path style=" stroke:none;fill-rule:nonzero;fill:rgb(0%,40%,60%);fill-opacity:1;" d="M 13.082031 51.96875 C 13.082031 53.214844 12.078125 54.226562 10.835938 54.226562 C 9.597656 54.226562 8.589844 53.214844 8.589844 51.96875 C 8.589844 50.722656 9.597656 49.714844 10.835938 49.714844 C 12.078125 49.714844 13.082031 50.722656 13.082031 51.96875 Z M 13.082031 51.96875 "/>
<path style=" stroke:none;fill-rule:nonzero;fill:rgb(0%,40%,60%);fill-opacity:1;" d="M 13.082031 99.417969 C 13.082031 100.667969 12.078125 101.675781 10.835938 101.675781 C 9.597656 101.675781 8.589844 100.667969 8.589844 99.417969 C 8.589844 98.171875 9.597656 97.164062 10.835938 97.164062 C 12.078125 97.164062 13.082031 98.171875 13.082031 99.417969 Z M 13.082031 99.417969 "/>
<path style=" stroke:none;fill-rule:nonzero;fill:rgb(0%,40%,60%);fill-opacity:1;" d="M 59.949219 146.054688 C 59.949219 147.300781 58.941406 148.3125 57.703125 148.3125 C 56.460938 148.3125 55.457031 147.300781 55.457031 146.054688 C 55.457031 144.808594 56.460938 143.796875 57.703125 143.796875 C 58.941406 143.796875 59.949219 144.808594 59.949219 146.054688 Z M 59.949219 146.054688 "/>
<path style="fill:none;stroke-width:0.3;stroke-linecap:butt;stroke-linejoin:miter;stroke:rgb(0%,40%,60%);stroke-opacity:1;stroke-miterlimit:10;" d="M 55.578519 4.968136 L 10.309706 49.878711 " transform="matrix(1.040054,0,0,1.044698,0,0.0168312)"/>
<path style="fill:none;stroke-width:0.3;stroke-linecap:butt;stroke-linejoin:miter;stroke:rgb(0%,40%,60%);stroke-opacity:1;stroke-miterlimit:10;" d="M 10.309706 139.5316 L 146.010981 5.151353 " transform="matrix(1.040054,0,0,1.044698,0,0.0168312)"/>
<path style=" stroke:none;fill-rule:nonzero;fill:rgb(0%,40%,60%);fill-opacity:1;" d="M 13.082031 146.054688 C 13.082031 147.300781 12.078125 148.3125 10.835938 148.3125 C 9.597656 148.3125 8.589844 147.300781 8.589844 146.054688 C 8.589844 144.808594 9.597656 143.796875 10.835938 143.796875 C 12.078125 143.796875 13.082031 144.808594 13.082031 146.054688 Z M 13.082031 146.054688 "/>
<path style=" stroke:none;fill-rule:nonzero;fill:rgb(0%,40%,60%);fill-opacity:1;" d="M 59.949219 51.96875 C 59.949219 53.214844 58.941406 54.226562 57.703125 54.226562 C 56.460938 54.226562 55.457031 53.214844 55.457031 51.96875 C 55.457031 50.722656 56.460938 49.714844 57.703125 49.714844 C 58.941406 49.714844 59.949219 50.722656 59.949219 51.96875 Z M 59.949219 51.96875 "/>
<path style=" stroke:none;fill-rule:nonzero;fill:rgb(0%,0%,0%);fill-opacity:1;" d="M 64.140625 149.136719 C 64.417969 149.332031 64.738281 149.453125 65.078125 149.480469 C 65.570312 149.519531 66.046875 149.304688 66.34375 148.90625 C 66.617188 148.542969 66.761719 148.097656 66.761719 147.644531 C 66.765625 147.234375 66.648438 146.835938 66.429688 146.492188 C 65.980469 145.898438 65.253906 145.578125 64.515625 145.648438 L 64.191406 145.648438 L 64.191406 145.492188 C 64.742188 145.300781 65.257812 145.027344 65.722656 144.675781 C 66.089844 144.382812 66.296875 143.933594 66.28125 143.464844 C 66.320312 143.066406 66.15625 142.671875 65.847656 142.417969 C 65.554688 142.179688 65.183594 142.054688 64.804688 142.0625 C 64.359375 142.0625 63.933594 142.246094 63.621094 142.566406 C 63.386719 142.8125 63.183594 143.089844 63.015625 143.390625 L 62.828125 143.390625 C 62.96875 142.8125 63.285156 142.292969 63.734375 141.90625 C 64.164062 141.539062 64.710938 141.34375 65.273438 141.355469 C 65.800781 141.316406 66.324219 141.503906 66.710938 141.867188 C 67.035156 142.175781 67.21875 142.605469 67.21875 143.058594 C 67.207031 143.441406 67.058594 143.8125 66.800781 144.101562 C 66.585938 144.339844 66.335938 144.550781 66.0625 144.726562 C 66.40625 144.867188 66.722656 145.066406 67 145.3125 C 67.445312 145.738281 67.6875 146.328125 67.664062 146.941406 C 67.675781 147.738281 67.339844 148.5 66.75 149.03125 C 66.039062 149.660156 65.105469 149.980469 64.160156 149.921875 C 63.800781 149.949219 63.4375 149.867188 63.121094 149.691406 C 62.949219 149.589844 62.835938 149.410156 62.820312 149.210938 C 62.820312 149.101562 62.855469 148.992188 62.921875 148.90625 C 63 148.808594 63.121094 148.753906 63.246094 148.761719 C 63.574219 148.796875 63.882812 148.929688 64.140625 149.136719 Z M 64.140625 149.136719 "/>
<path style=" stroke:none;fill-rule:nonzero;fill:rgb(0%,40%,60%);fill-opacity:1;" d="M 104.203125 8.6875 C 104.472656 8.628906 104.714844 8.484375 104.898438 8.28125 C 105.28125 7.765625 105.628906 7.230469 105.941406 6.671875 L 109.789062 -0.00390625 L 110.109375 -0.00390625 L 111.378906 7.527344 C 111.402344 7.851562 111.5 8.164062 111.671875 8.4375 C 111.878906 8.589844 112.128906 8.671875 112.386719 8.667969 L 112.386719 8.886719 L 109.070312 8.886719 L 109.070312 8.667969 C 109.328125 8.65625 109.585938 8.609375 109.828125 8.519531 C 110.011719 8.433594 110.125 8.242188 110.109375 8.039062 L 110.109375 7.832031 C 110.109375 7.757812 110.109375 7.695312 110.109375 7.644531 L 109.820312 5.898438 L 106.992188 5.898438 L 106.160156 7.390625 C 106.105469 7.496094 106.054688 7.605469 106.011719 7.714844 C 105.945312 7.875 105.90625 8.046875 105.898438 8.21875 C 105.886719 8.359375 105.957031 8.496094 106.074219 8.574219 C 106.269531 8.65625 106.476562 8.695312 106.6875 8.6875 L 106.6875 8.90625 L 104.203125 8.90625 Z M 109.746094 5.429688 L 109.183594 1.96875 L 107.261719 5.429688 Z M 109.746094 5.429688 "/>
<path style="fill:none;stroke-width:0.3;stroke-linecap:butt;stroke-linejoin:miter;stroke:rgb(0%,40%,60%);stroke-opacity:1;stroke-miterlimit:10;" d="M 145.398784 49.878711 L 55.578519 140.058816 " transform="matrix(1.040054,0,0,1.044698,0,0.0168312)"/>
<path style="fill:none;stroke-width:0.3;stroke-linecap:butt;stroke-linejoin:miter;stroke:rgb(0%,40%,60%);stroke-opacity:1;stroke-miterlimit:10;" d="M 10.489985 95.148241 L 55.578519 49.710451 " transform="matrix(1.040054,0,0,1.044698,0,0.0168312)"/>
<path style=" stroke:none;fill-rule:nonzero;fill:rgb(0%,40%,60%);fill-opacity:1;" d="M 106.898438 51.96875 C 106.898438 53.214844 105.890625 54.226562 104.648438 54.226562 C 103.410156 54.226562 102.402344 53.214844 102.402344 51.96875 C 102.402344 50.722656 103.410156 49.714844 104.648438 49.714844 C 105.890625 49.714844 106.898438 50.722656 106.898438 51.96875 Z M 106.898438 51.96875 "/>
<path style=" stroke:none;fill-rule:nonzero;fill:rgb(0%,40%,60%);fill-opacity:1;" d="M 59.949219 5.242188 C 59.949219 6.488281 58.941406 7.496094 57.703125 7.496094 C 56.460938 7.496094 55.457031 6.488281 55.457031 5.242188 C 55.457031 3.992188 56.460938 2.984375 57.703125 2.984375 C 58.941406 2.984375 59.949219 3.992188 59.949219 5.242188 Z M 59.949219 5.242188 "/>
<path style=" stroke:none;fill-rule:nonzero;fill:rgb(0%,40%,60%);fill-opacity:1;" d="M 153.605469 5.242188 C 153.605469 6.488281 152.601562 7.496094 151.359375 7.496094 C 150.117188 7.496094 149.113281 6.488281 149.113281 5.242188 C 149.113281 3.992188 150.117188 2.984375 151.359375 2.984375 C 152.601562 2.984375 153.605469 3.992188 153.605469 5.242188 Z M 153.605469 5.242188 "/>
<path style="fill:none;stroke-width:0.3;stroke-linecap:butt;stroke-linejoin:miter;stroke:rgb(0%,40%,60%);stroke-opacity:1;stroke-miterlimit:10;" d="M 10.418625 49.710451 L 10.418625 139.711078 " transform="matrix(1.040054,0,0,1.044698,0,0.0168312)"/>
<path style="fill:none;stroke-width:0.3;stroke-linecap:butt;stroke-linejoin:miter;stroke:rgb(0%,40%,60%);stroke-opacity:1;stroke-miterlimit:10;" d="M 100.618227 49.710451 L 100.618227 139.879338 " transform="matrix(1.040054,0,0,1.044698,0,0.0168312)"/>
<path style="fill:none;stroke-width:0.3;stroke-linecap:butt;stroke-linejoin:miter;stroke:rgb(0%,40%,60%);stroke-opacity:1;stroke-miterlimit:10;" d="M 55.480868 4.799876 L 55.480868 139.5316 " transform="matrix(1.040054,0,0,1.044698,0,0.0168312)"/>
<path style="fill:none;stroke-width:0.3;stroke-linecap:butt;stroke-linejoin:miter;stroke:rgb(0%,40%,60%);stroke-opacity:1;stroke-miterlimit:10;" d="M 145.410051 5.151353 L 145.410051 49.938537 " transform="matrix(1.040054,0,0,1.044698,0,0.0168312)"/>
<path style=" stroke:none;fill-rule:nonzero;fill:rgb(0%,0%,0%);fill-opacity:1;" d="M 111.628906 149.117188 C 111.878906 149.328125 112.179688 149.464844 112.503906 149.511719 C 112.984375 149.503906 113.433594 149.277344 113.730469 148.898438 C 114.082031 148.46875 114.269531 147.925781 114.25 147.371094 C 114.257812 146.316406 113.570312 145.386719 112.566406 145.082031 C 112.019531 144.839844 111.425781 144.707031 110.828125 144.695312 L 110.660156 144.695312 C 110.660156 144.695312 110.660156 144.695312 110.578125 144.632812 C 110.582031 144.605469 110.582031 144.578125 110.578125 144.550781 C 110.578125 144.550781 110.578125 144.550781 110.578125 144.488281 L 111.910156 141.5625 L 114.519531 141.5625 C 114.625 141.570312 114.730469 141.546875 114.820312 141.488281 C 114.925781 141.421875 115.023438 141.335938 115.101562 141.238281 L 115.195312 141.332031 L 114.726562 142.460938 C 114.726562 142.460938 114.664062 142.523438 114.59375 142.535156 L 111.992188 142.535156 L 111.472656 143.578125 C 111.96875 143.652344 112.460938 143.757812 112.941406 143.902344 C 113.417969 144.050781 113.855469 144.308594 114.21875 144.65625 C 114.5 144.9375 114.726562 145.269531 114.882812 145.636719 C 115.035156 146 115.113281 146.390625 115.113281 146.785156 C 115.128906 147.644531 114.777344 148.464844 114.144531 149.042969 C 113.210938 149.839844 111.945312 150.136719 110.753906 149.835938 C 110.351562 149.699219 110.140625 149.480469 110.140625 149.15625 C 110.140625 149.035156 110.1875 148.917969 110.277344 148.835938 C 110.386719 148.730469 110.535156 148.683594 110.683594 148.699219 C 111.03125 148.738281 111.363281 148.882812 111.628906 149.117188 Z M 111.628906 149.117188 "/>
<path style=" stroke:none;fill-rule:nonzero;fill:rgb(0%,0%,0%);fill-opacity:1;" d="M 1.050781 50.433594 C 0.746094 50.054688 0.585938 49.582031 0.59375 49.097656 C 0.597656 48.5625 0.839844 48.058594 1.257812 47.726562 C 1.753906 47.351562 2.363281 47.160156 2.984375 47.195312 C 3.554688 47.164062 4.113281 47.355469 4.546875 47.726562 C 4.910156 48.039062 5.121094 48.492188 5.128906 48.972656 C 5.117188 49.464844 4.902344 49.929688 4.535156 50.257812 C 4.195312 50.542969 3.824219 50.792969 3.433594 51 C 3.980469 51.382812 4.480469 51.835938 4.917969 52.347656 C 5.222656 52.726562 5.386719 53.203125 5.378906 53.695312 C 5.382812 54.261719 5.140625 54.804688 4.710938 55.175781 C 4.21875 55.59375 3.585938 55.804688 2.941406 55.773438 C 2.328125 55.792969 1.726562 55.59375 1.238281 55.21875 C 0.777344 54.875 0.515625 54.332031 0.53125 53.757812 C 0.523438 53.253906 0.699219 52.769531 1.019531 52.386719 C 1.355469 52.035156 1.730469 51.726562 2.140625 51.46875 C 1.742188 51.164062 1.378906 50.816406 1.050781 50.433594 Z M 4.023438 55.03125 C 4.265625 54.765625 4.390625 54.417969 4.378906 54.058594 C 4.390625 53.675781 4.257812 53.300781 4.003906 53.015625 C 3.519531 52.546875 2.996094 52.128906 2.433594 51.761719 C 2.101562 51.964844 1.835938 52.261719 1.675781 52.617188 C 1.519531 52.945312 1.4375 53.300781 1.433594 53.660156 C 1.445312 54.132812 1.625 54.582031 1.945312 54.925781 C 2.199219 55.238281 2.582031 55.421875 2.984375 55.425781 C 3.371094 55.449219 3.75 55.304688 4.023438 55.03125 Z M 3.835938 50.078125 C 4.09375 49.753906 4.222656 49.351562 4.210938 48.941406 C 4.21875 48.582031 4.09375 48.230469 3.859375 47.957031 C 3.585938 47.679688 3.207031 47.53125 2.820312 47.550781 C 2.476562 47.535156 2.140625 47.664062 1.894531 47.90625 C 1.652344 48.125 1.515625 48.4375 1.519531 48.761719 C 1.527344 49.152344 1.683594 49.527344 1.957031 49.808594 C 2.277344 50.175781 2.65625 50.488281 3.078125 50.738281 C 3.367188 50.546875 3.636719 50.328125 3.878906 50.078125 Z M 3.835938 50.078125 "/>
<path style=" stroke:none;fill-rule:nonzero;fill:rgb(0%,0%,0%);fill-opacity:1;" d="M 157.859375 8.355469 C 158.132812 8.558594 158.457031 8.683594 158.796875 8.707031 C 159.285156 8.722656 159.75 8.484375 160.03125 8.082031 C 160.300781 7.71875 160.445312 7.28125 160.449219 6.828125 C 160.457031 6.414062 160.335938 6.011719 160.105469 5.667969 C 159.65625 5.074219 158.929688 4.757812 158.191406 4.832031 L 157.871094 4.832031 L 157.871094 4.6875 C 158.425781 4.507812 158.945312 4.234375 159.410156 3.882812 C 159.800781 3.601562 160.03125 3.152344 160.03125 2.671875 C 160.0625 2.269531 159.898438 1.878906 159.585938 1.625 C 159.292969 1.390625 158.921875 1.269531 158.546875 1.28125 C 158.105469 1.28125 157.679688 1.457031 157.371094 1.773438 C 157.132812 2.019531 156.929688 2.300781 156.765625 2.609375 L 156.582031 2.609375 C 156.710938 2.027344 157.03125 1.507812 157.484375 1.125 C 157.902344 0.753906 158.4375 0.542969 158.992188 0.539062 C 159.527344 0.503906 160.050781 0.683594 160.449219 1.039062 C 160.777344 1.351562 160.960938 1.78125 160.957031 2.230469 C 160.945312 2.617188 160.796875 2.988281 160.542969 3.277344 C 160.320312 3.515625 160.074219 3.726562 159.804688 3.914062 C 160.144531 4.054688 160.460938 4.253906 160.742188 4.5 C 161.179688 4.925781 161.421875 5.515625 161.40625 6.128906 C 161.414062 6.925781 161.082031 7.6875 160.492188 8.21875 C 159.78125 8.851562 158.847656 9.171875 157.902344 9.105469 C 157.539062 9.136719 157.179688 9.058594 156.859375 8.886719 C 156.6875 8.785156 156.574219 8.605469 156.558594 8.40625 C 156.5625 8.292969 156.59375 8.1875 156.652344 8.09375 C 156.734375 7.992188 156.859375 7.9375 156.984375 7.945312 C 157.308594 8.003906 157.609375 8.144531 157.859375 8.355469 Z M 157.859375 8.355469 "/>
<path style=" stroke:none;fill-rule:nonzero;fill:rgb(0%,0%,0%);fill-opacity:1;" d="M 167.386719 2.085938 C 167.8125 2.9375 168.023438 3.878906 168 4.832031 C 168.007812 5.613281 167.878906 6.386719 167.625 7.121094 C 167.378906 8.292969 166.351562 9.132812 165.160156 9.148438 C 164.367188 9.15625 163.625 8.765625 163.183594 8.101562 C 162.585938 7.152344 162.292969 6.039062 162.351562 4.917969 C 162.332031 3.980469 162.519531 3.054688 162.902344 2.199219 C 163.265625 1.226562 164.199219 0.585938 165.234375 0.601562 C 166.183594 0.621094 167.027344 1.203125 167.386719 2.085938 Z M 166.460938 7.820312 C 166.71875 6.894531 166.832031 5.929688 166.792969 4.96875 C 166.8125 4.171875 166.746094 3.378906 166.597656 2.597656 C 166.347656 1.488281 165.867188 0.945312 165.179688 0.945312 C 164.496094 0.945312 164.015625 1.511719 163.757812 2.640625 C 163.613281 3.429688 163.546875 4.230469 163.558594 5.03125 C 163.542969 5.773438 163.613281 6.519531 163.765625 7.246094 C 164.027344 8.289062 164.515625 8.804688 165.234375 8.804688 C 165.828125 8.808594 166.339844 8.394531 166.460938 7.808594 Z M 166.460938 7.820312 "/>
<path style=" stroke:none;fill-rule:nonzero;fill:rgb(0%,0%,0%);fill-opacity:1;" d="M 62.664062 8.886719 C 63.738281 7.808594 64.746094 6.667969 65.691406 5.46875 C 66.171875 4.878906 66.453125 4.144531 66.492188 3.378906 C 66.523438 2.871094 66.347656 2.375 66 2 C 65.691406 1.695312 65.273438 1.523438 64.835938 1.53125 C 64.316406 1.511719 63.816406 1.734375 63.484375 2.136719 C 63.246094 2.453125 63.058594 2.804688 62.933594 3.183594 L 62.671875 3.183594 C 62.777344 2.425781 63.144531 1.734375 63.714844 1.230469 C 64.160156 0.875 64.707031 0.683594 65.273438 0.675781 C 65.898438 0.648438 66.507812 0.886719 66.949219 1.332031 C 67.367188 1.753906 67.597656 2.328125 67.582031 2.921875 C 67.570312 3.625 67.332031 4.304688 66.894531 4.855469 C 65.957031 6.011719 64.957031 7.117188 63.902344 8.164062 L 66.699219 8.164062 C 66.96875 8.148438 67.234375 8.066406 67.46875 7.925781 C 67.703125 7.746094 67.886719 7.515625 68.007812 7.246094 L 68.164062 7.320312 L 67.488281 9.023438 L 62.664062 9.023438 Z M 62.664062 8.886719 "/>
<path style=" stroke:none;fill-rule:nonzero;fill:rgb(0%,0%,0%);fill-opacity:1;" d="M 72.566406 0.613281 L 73.148438 0.613281 L 73.148438 6.128906 L 74.425781 6.128906 L 74.425781 6.941406 L 73.148438 6.941406 L 73.148438 9.03125 L 72.179688 9.03125 L 72.179688 6.941406 L 68.664062 6.941406 L 68.664062 6.128906 Z M 72.167969 1.875 L 69.175781 6.128906 L 72.167969 6.128906 Z M 72.167969 1.875 "/>
<path style=" stroke:none;fill-rule:nonzero;fill:rgb(0%,0%,0%);fill-opacity:1;" d="M 66.011719 47.277344 L 66.011719 54.71875 C 66.011719 55.03125 66.09375 55.230469 66.261719 55.3125 C 66.5625 55.421875 66.878906 55.472656 67.199219 55.46875 L 67.199219 55.636719 L 63.753906 55.636719 L 63.753906 55.457031 C 64.089844 55.46875 64.421875 55.398438 64.722656 55.25 C 64.867188 55.144531 64.941406 54.90625 64.941406 54.539062 L 64.941406 48.867188 C 64.949219 48.714844 64.925781 48.558594 64.867188 48.417969 C 64.867188 48.324219 64.722656 48.269531 64.554688 48.269531 C 64.414062 48.28125 64.273438 48.308594 64.140625 48.355469 L 63.671875 48.542969 L 63.671875 48.375 L 65.910156 47.226562 L 65.980469 47.226562 C 65.980469 47.226562 66 47.269531 66.011719 47.277344 Z M 66.011719 47.277344 "/>
<path style=" stroke:none;fill-rule:nonzero;fill:rgb(0%,0%,0%);fill-opacity:1;" d="M 68.902344 55.5 C 69.980469 54.425781 70.992188 53.285156 71.929688 52.085938 C 72.410156 51.492188 72.691406 50.757812 72.730469 49.996094 C 72.765625 49.488281 72.589844 48.988281 72.242188 48.617188 C 71.933594 48.308594 71.511719 48.140625 71.078125 48.144531 C 70.558594 48.125 70.058594 48.351562 69.726562 48.753906 C 69.484375 49.066406 69.300781 49.421875 69.175781 49.796875 L 68.914062 49.746094 C 69.019531 48.988281 69.386719 48.296875 69.953125 47.789062 C 70.398438 47.4375 70.949219 47.242188 71.515625 47.238281 C 72.140625 47.210938 72.746094 47.449219 73.1875 47.894531 C 73.609375 48.316406 73.839844 48.890625 73.824219 49.484375 C 73.8125 50.1875 73.570312 50.863281 73.136719 51.414062 C 72.199219 52.574219 71.199219 53.679688 70.140625 54.726562 L 72.9375 54.726562 C 73.21875 54.746094 73.503906 54.695312 73.761719 54.582031 C 73.992188 54.402344 74.179688 54.171875 74.300781 53.902344 L 74.457031 53.976562 L 73.78125 55.679688 L 68.902344 55.679688 Z M 68.902344 55.5 "/>
<path style=" stroke:none;fill-rule:nonzero;fill:rgb(0%,0%,0%);fill-opacity:1;" d="M 113.511719 47.277344 L 113.511719 54.71875 C 113.511719 55.03125 113.59375 55.230469 113.761719 55.3125 C 114.0625 55.421875 114.378906 55.472656 114.695312 55.46875 L 114.695312 55.636719 L 111.253906 55.636719 L 111.253906 55.457031 C 111.589844 55.46875 111.921875 55.398438 112.222656 55.25 C 112.367188 55.144531 112.441406 54.90625 112.441406 54.539062 L 112.441406 48.867188 C 112.449219 48.714844 112.425781 48.558594 112.367188 48.417969 C 112.300781 48.308594 112.179688 48.253906 112.054688 48.269531 C 111.914062 48.28125 111.773438 48.308594 111.640625 48.355469 L 111.171875 48.542969 L 111.171875 48.375 L 113.40625 47.226562 L 113.480469 47.226562 C 113.480469 47.226562 113.5 47.269531 113.511719 47.277344 Z M 113.511719 47.277344 "/>
<path style=" stroke:none;fill-rule:nonzero;fill:rgb(0%,0%,0%);fill-opacity:1;" d="M 121.167969 48.6875 C 121.59375 49.539062 121.808594 50.484375 121.789062 51.4375 C 121.792969 52.21875 121.660156 52.996094 121.40625 53.734375 C 121.152344 54.902344 120.128906 55.738281 118.941406 55.75 C 118.148438 55.761719 117.40625 55.367188 116.964844 54.707031 C 116.375 53.773438 116.085938 52.679688 116.132812 51.574219 C 116.109375 50.636719 116.300781 49.707031 116.695312 48.855469 C 117.066406 47.910156 117.980469 47.296875 118.992188 47.308594 C 119.925781 47.300781 120.773438 47.839844 121.167969 48.6875 Z M 120.242188 54.425781 C 120.503906 53.5 120.621094 52.535156 120.582031 51.574219 C 120.601562 50.777344 120.53125 49.980469 120.375 49.203125 C 120.125 48.09375 119.660156 47.550781 118.960938 47.550781 C 118.265625 47.550781 117.796875 48.113281 117.546875 49.253906 C 117.390625 50.039062 117.324219 50.835938 117.339844 51.636719 C 117.324219 52.378906 117.394531 53.121094 117.546875 53.851562 C 117.808594 54.894531 118.296875 55.40625 119.011719 55.40625 C 119.601562 55.414062 120.117188 55.003906 120.242188 54.425781 Z M 120.242188 54.425781 "/>
<path style=" stroke:none;fill-rule:nonzero;fill:rgb(0%,0%,0%);fill-opacity:1;" d="M 3.898438 94.9375 L 4.484375 94.9375 L 4.484375 100.453125 L 5.761719 100.453125 L 5.761719 101.269531 L 4.484375 101.269531 L 4.484375 103.359375 L 3.515625 103.359375 L 3.515625 101.269531 L 0 101.269531 L 0 100.453125 Z M 3.503906 96.203125 L 0.507812 100.453125 L 3.503906 100.453125 Z M 3.503906 96.203125 "/>
<path style=" stroke:none;fill-rule:nonzero;fill:rgb(0%,0%,0%);fill-opacity:1;" d="M 0.238281 149.699219 C 1.3125 148.613281 2.324219 147.460938 3.265625 146.253906 C 3.730469 145.652344 3.996094 144.921875 4.023438 144.164062 C 4.058594 143.660156 3.878906 143.164062 3.535156 142.796875 C 3.230469 142.480469 2.808594 142.308594 2.371094 142.316406 C 1.851562 142.300781 1.351562 142.527344 1.019531 142.929688 C 0.773438 143.242188 0.589844 143.597656 0.46875 143.976562 L 0.207031 143.914062 C 0.3125 143.160156 0.679688 142.464844 1.25 141.960938 C 1.695312 141.609375 2.25 141.417969 2.820312 141.417969 C 3.4375 141.390625 4.039062 141.625 4.484375 142.0625 C 4.902344 142.488281 5.132812 143.066406 5.117188 143.664062 C 5.105469 144.363281 4.863281 145.042969 4.429688 145.59375 C 3.492188 146.75 2.492188 147.851562 1.433594 148.898438 L 4.265625 148.898438 C 4.546875 148.917969 4.828125 148.871094 5.085938 148.761719 C 5.320312 148.578125 5.503906 148.339844 5.625 148.070312 L 5.78125 148.144531 L 5.066406 149.847656 L 0.238281 149.847656 Z M 0.238281 149.699219 "/>
</g>
</svg>
